<svg width="128" height="128" viewBox="0 0 128 128" fill="none" xmlns="http://www.w3.org/2000/svg">
<style>
  path { fill: #a29fa3; }
  @media (prefers-color-scheme: dark) {
    path { fill: #747175; }
  }
</style>
<path d="M110.087 35.0356L66.2739 9.61171C64.867 8.79512 63.131 8.79512 61.7241 9.61171L17.9129 35.0356C16.7302 35.722 16 36.9913 16 38.3661V89.6335C16 91.0083 16.7302 92.2776 17.9129 92.964L61.7261 118.388C63.133 119.204 64.869 119.204 66.2759 118.388L110.089 92.964C111.272 92.2776 112.002 91.0083 112.002 89.6335V38.3661C112.002 36.9913 111.272 35.722 110.089 35.0356H110.087ZM107.335 40.421L65.0397 114.051C64.7538 114.547 63.999 114.344 63.999 113.769V65.5575C63.999 64.5941 63.4868 63.7031 62.6558 63.2194L21.1154 39.1144C20.6218 38.8271 20.8233 38.0684 21.3952 38.0684H105.986C107.187 38.0684 107.938 39.377 107.337 40.423H107.335V40.421Z" />
</svg>
