<svg width="385" height="90" viewBox="0 0 385 90" fill="none" xmlns="http://www.w3.org/2000/svg">
<path d="M366.422 67.5555C353.566 67.5555 345.378 59.543 345.378 44.7508C345.378 31.8075 354.007 21.5938 365.981 21.5938C376.987 21.5938 384.648 28.6377 385 41.4049V43.342H354.711V44.4866C354.711 55.7569 360.522 61.8323 369.855 61.8323C374.698 61.8323 378.308 60.3355 381.83 57.8701L383.943 60.5996C379.365 65.0021 373.466 67.5555 366.422 67.5555ZM354.975 39.2917L376.195 39.0275C375.931 31.0151 372.145 25.7321 366.157 25.7321C360.082 25.7321 356.12 30.7509 354.975 39.2917Z" fill="black"/>
<path d="M315.714 67.5555C302.859 67.5555 294.67 59.543 294.67 44.7508C294.67 31.8075 303.299 21.5938 315.274 21.5938C326.28 21.5938 333.94 28.6377 334.292 41.4049V43.342H304.004V44.4866C304.004 55.7569 309.815 61.8323 319.148 61.8323C323.991 61.8323 327.601 60.3355 331.123 57.8701L333.236 60.5996C328.657 65.0021 322.758 67.5555 315.714 67.5555ZM304.268 39.2917L325.488 39.0275C325.223 31.0151 321.437 25.7321 315.45 25.7321C309.375 25.7321 305.412 30.7509 304.268 39.2917Z" fill="black"/>
<path d="M261.761 88.6874C250.315 88.6874 243.359 84.549 243.359 77.4171C243.359 73.6309 245.648 70.197 250.843 66.7631C246.088 65.6184 244.239 63.3292 244.239 59.3669C244.239 58.7506 244.239 58.3103 244.327 57.8701L251.107 48.801C246.529 46.1595 243.887 41.8451 243.887 36.7383C243.887 28.5497 251.724 21.5938 262.73 21.5938C266.34 21.5938 269.51 22.2101 272.151 23.3548L284.214 21.5938H286.503L286.151 27.7572L277.17 26.7887C279.899 29.3421 281.396 32.776 281.396 36.9144C281.396 45.3671 273.648 51.6186 262.73 51.6186C259.648 51.6186 257.007 51.1784 254.629 50.2979L251.988 54.6123C251.9 54.9645 251.9 55.4928 251.9 55.845C251.9 57.9582 254.541 59.6311 260 59.6311H272.063C281.924 59.6311 286.591 63.1531 286.591 70.9014C286.591 81.3793 276.201 88.6874 261.761 88.6874ZM262.73 47.5683C268.541 47.5683 272.239 43.43 272.239 36.7383C272.239 29.9585 268.453 25.644 262.73 25.644C256.654 25.644 253.044 30.6629 253.044 36.7383C253.044 43.2539 256.742 47.5683 262.73 47.5683ZM264.931 83.2283C273.912 83.2283 280.692 79.4422 280.692 74.1592C280.692 69.8448 278.138 67.6436 271.094 67.6436H260.352C258.415 67.6436 256.83 67.6436 254.893 67.4675C252.076 70.0209 250.667 72.7504 250.667 75.3919C250.667 80.5868 255.686 83.2283 264.931 83.2283Z" fill="black"/>
<path d="M204.781 67.5555C193.599 67.5555 186.291 58.3984 186.291 46.3356C186.291 31.0151 195.272 21.5938 209.448 21.5938C212.881 21.5938 216.227 22.5623 218.869 24.2353V13.8454C218.869 10.3235 217.988 9.26687 215.523 8.65052L212.265 7.94613V5.7449L225.472 0.638034L227.498 1.87072V55.933C227.498 59.0147 228.29 60.0713 231.196 60.4235L234.454 60.7757L234.806 63.065L223.359 67.5555H221.51L219.045 60.3355C214.73 65.0021 209.712 67.5555 204.781 67.5555ZM208.391 61.1279C212.529 61.1279 216.315 58.9267 218.869 55.6689V34.6251C218.605 29.078 214.642 25.7321 208.919 25.7321C201.083 25.7321 195.624 33.0402 195.624 43.7822C195.624 54.3481 200.378 61.1279 208.391 61.1279Z" fill="black"/>
<path d="M156.627 67.5555C143.772 67.5555 135.583 59.543 135.583 44.7508C135.583 31.8075 144.212 21.5938 156.187 21.5938C167.193 21.5938 174.853 28.6377 175.205 41.4049V43.342H144.916V44.4866C144.916 55.7569 150.728 61.8323 160.061 61.8323C164.903 61.8323 168.514 60.3355 172.035 57.8701L174.149 60.5996C169.57 65.0021 163.671 67.5555 156.627 67.5555ZM145.18 39.2917L166.4 39.0275C166.136 31.0151 162.35 25.7321 156.363 25.7321C150.287 25.7321 146.325 30.7509 145.18 39.2917Z" fill="black"/>
<path d="M38.2261 2.00406C38.7693 0.784791 39.9745 0 41.3038 0H75.1027C77.5471 0 79.1794 2.53196 78.1805 4.77402L73.9743 14.2149C73.431 15.4342 72.2258 16.219 70.8965 16.219H37.0976C34.6533 16.219 33.0209 13.687 34.0199 11.445L38.2261 2.00406Z" fill="black"/>
<path d="M4.50449 38.7994C5.04771 37.5801 6.25294 36.7953 7.5822 36.7953H48.3663C50.8107 36.7953 52.443 39.3273 51.4441 41.5693L47.2379 51.0102C46.6946 52.2295 45.4894 53.0143 44.1601 53.0143H3.37599C0.931673 53.0143 -0.700632 50.4823 0.298274 48.2402L4.50449 38.7994Z" fill="black"/>
<path d="M4.50449 75.1105C5.04771 73.8912 6.25294 73.1064 7.5822 73.1064H63.7819C66.2262 73.1064 67.8586 75.6384 66.8596 77.8805L62.6534 87.3214C62.1102 88.5406 60.905 89.3254 59.5757 89.3254H3.37599C0.931673 89.3254 -0.700632 86.7934 0.298274 84.5514L4.50449 75.1105Z" fill="black"/>
</svg>
